HIERARCHY
ROOT Hips
{
	OFFSET 0.000000 0.000000 0.000000 
	CHANNELS 6 Xposition Yposition Zposition Zrotation Xrotation Yrotation
	JOINT Spine
	{
		OFFSET -0.000000 8.359812 0.000000 
		CHANNELS 3 Zrotation Xrotation Yrotation
		JOINT Spine1
		{
			OFFSET -0.000000 28.141317 0.000000 
			CHANNELS 3 Zrotation Xrotation Yrotation
			JOINT Neck
			{
				OFFSET -0.000000 28.025745 2.547795 
				CHANNELS 3 Zrotation Xrotation Yrotation
				JOINT Head
				{
					OFFSET -0.000000 14.272848 -2.038978 
					CHANNELS 3 Zrotation Xrotation Yrotation
					End Site
					{
						OFFSET -0.000000 25.487228 0.000000 
					}
				}
			}
			JOINT LeftShoulder
			{
				OFFSET 4.059574 26.120710 -0.180480 
				CHANNELS 3 Zrotation Xrotation Yrotation
				JOINT LeftArm
				{
					OFFSET 11.584161 0.000000 0.000000 
					CHANNELS 3 Zrotation Xrotation Yrotation
					JOINT LeftForeArm
					{
						OFFSET 30.766815 0.000000 0.000000 
						CHANNELS 3 Zrotation Xrotation Yrotation
						JOINT LeftHand
						{
							OFFSET 29.436810 0.000000 0.000000 
							CHANNELS 3 Zrotation Xrotation Yrotation
							End Site
							{
								OFFSET 15.292337 0.000000 0.000000 
							}
						}
					}
				}
			}
			JOINT RightShoulder
			{
				OFFSET -4.095355 26.120710 -0.180480 
				CHANNELS 3 Zrotation Xrotation Yrotation
				JOINT RightArm
				{
					OFFSET -11.584161 0.000000 0.000000 
					CHANNELS 3 Zrotation Xrotation Yrotation
					JOINT RightForeArm
					{
						OFFSET -30.766815 0.000000 0.000000 
						CHANNELS 3 Zrotation Xrotation Yrotation
						JOINT RightHand
						{
							OFFSET -29.436810 0.000000 0.000000 
							CHANNELS 3 Zrotation Xrotation Yrotation
							End Site
							{
								OFFSET -15.292337 0.000000 0.000000 
							}
						}
					}
				}
			}
		}
	}
	JOINT LeftUpLeg
	{
		OFFSET 10.194892 0.000000 0.000000 
		CHANNELS 3 Zrotation Xrotation Yrotation
		JOINT LeftLeg
		{
			OFFSET -0.000000 -32.520012 0.000000 
			CHANNELS 3 Zrotation Xrotation Yrotation
			JOINT LeftFoot
			{
				OFFSET -0.000000 -49.106510 0.000000 
				CHANNELS 3 Zrotation Xrotation Yrotation
				JOINT LeftToeBase
				{
					OFFSET -0.000000 -6.626679 15.292337 
					CHANNELS 3 Zrotation Xrotation Yrotation
					End Site
					{
						OFFSET -0.000000 0.000000 4.077957 
					}
				}
			}
		}
	}
	JOINT RightUpLeg
	{
		OFFSET -10.194892 0.000000 0.000000 
		CHANNELS 3 Zrotation Xrotation Yrotation
		JOINT RightLeg
		{
			OFFSET -0.000000 -32.520012 0.000000 
			CHANNELS 3 Zrotation Xrotation Yrotation
			JOINT RightFoot
			{
				OFFSET -0.000000 -49.106510 0.000000 
				CHANNELS 3 Zrotation Xrotation Yrotation
				JOINT RightToeBase
				{
					OFFSET -0.000000 -6.626679 15.292337 
					CHANNELS 3 Zrotation Xrotation Yrotation
					End Site
					{
						OFFSET -0.000000 0.000000 4.077957 
					}
				}
			}
		}
	}
}
MOTION
Frames: 14
Frame Time: 0.008333
-34.677509 87.753586 60.757725 -4.277709 0.299972 76.575714 3.135806 -8.194514 0.416225 -0.780657 1.424616 0.201197 4.205241 30.497744 9.899367 -12.360899 -3.354618 8.793753 13.604475 -1.511229 -0.878836 -16.426922 1.008587 3.610073 1.727538 -2.038083 1.215748 18.251223 -0.319836 10.780887 -14.731127 -1.135114 2.127149 18.990725 4.457522 17.356318 -1.143485 0.986314 -1.611049 -7.646049 1.957529 -14.698708 4.825572 -3.189029 -4.701253 -4.888194 3.648140 -10.068736 -0.305886 -5.350451 30.035709 0.000000 0.000000 0.000000 0.595053 -1.563833 2.564517 3.728710 3.519307 3.132028 -9.214083 -4.650158 -8.099863 0.000000 0.000000 0.000000 
-34.703682 87.756187 60.758389 -4.314714 0.303492 76.559868 3.136196 -8.182673 0.408375 -0.791137 1.431081 0.193903 4.188145 30.525572 9.924280 -12.373989 -3.508351 8.800066 13.599139 -1.502180 -0.850633 -16.389233 0.982104 3.618130 1.770459 -2.071941 1.185142 18.144291 -0.371957 10.731804 -14.700921 -1.118063 2.100172 18.957823 4.413298 17.418995 -1.158091 0.945004 -1.565783 -8.079364 1.967722 -14.629870 4.909620 -3.217098 -4.817668 -5.013349 3.625942 -10.450702 -0.076570 -5.320670 30.548813 0.000000 0.000000 0.000000 0.618543 -1.653028 2.586603 3.714103 3.574455 3.130517 -9.213370 -4.643821 -8.106045 0.000000 0.000000 0.000000 
-34.733112 87.758575 60.760605 -4.354394 0.307357 76.543777 3.142186 -8.183759 0.413298 -0.826707 1.485933 0.199150 4.220789 30.475452 9.931387 -12.392884 -3.620512 8.794785 13.672879 -1.527636 -0.808255 -16.409393 0.938834 3.607330 1.801566 -2.118437 1.142699 18.064331 -0.438407 10.653300 -14.723416 -1.136864 2.056591 19.010363 4.374076 17.436342 -1.256499 1.086777 -1.509043 -7.842224 2.076450 -14.605307 4.881358 -3.371371 -4.792178 -4.961040 3.781273 -10.280599 -0.242583 -5.375649 30.390249 0.000000 0.000000 0.000000 0.650081 -1.749149 2.574152 3.685349 3.632529 3.132782 -9.255527 -4.641101 -8.081476 0.000000 0.000000 0.000000 
-34.763466 87.760048 60.761322 -4.393023 0.320423 76.534042 3.131508 -8.165880 0.404358 -0.834516 1.505669 0.192124 4.216196 30.408499 9.953403 -12.405675 -3.652452 8.808640 13.676727 -1.532449 -0.770866 -16.388615 0.945192 3.635752 1.840832 -2.203543 1.063273 18.016357 -0.536300 10.596992 -14.789485 -1.163785 2.078981 19.081089 4.436427 17.394741 -1.350792 1.120056 -1.449884 -7.757559 2.094812 -14.555237 4.875453 -3.444860 -4.823653 -4.957981 3.798769 -10.228812 -0.253702 -5.347018 30.397261 0.000000 0.000000 0.000000 0.653777 -1.834496 2.550336 3.680313 3.672833 3.158780 -9.233501 -4.642221 -8.064958 0.000000 0.000000 0.000000 
-34.798248 87.760689 60.767399 -4.437633 0.325983 76.526489 3.120229 -8.153809 0.406702 -0.841742 1.544726 0.195945 4.217786 30.298367 9.964210 -12.375964 -3.653279 8.820399 13.737505 -1.585712 -0.747370 -16.421516 0.973897 3.674674 1.826925 -2.309095 0.948144 18.336897 -0.602623 10.639078 -14.808264 -1.193958 2.032733 19.091337 4.485116 17.399252 -1.374688 1.045682 -1.361041 -7.969934 2.047130 -14.536526 4.889716 -3.518781 -4.829361 -4.960624 3.815573 -10.303933 -0.250837 -5.350446 30.488934 0.000000 0.000000 0.000000 0.674446 -1.944765 2.544384 3.670293 3.744086 3.150967 -9.268213 -4.647868 -8.034067 0.000000 0.000000 0.000000 
-34.837593 87.761803 60.770954 -4.486487 0.340441 76.521774 3.098894 -8.126051 0.400129 -0.828777 1.545761 0.191450 4.207932 30.238667 9.975134 -12.399673 -3.683763 8.820496 13.741962 -1.586208 -0.712139 -16.424391 1.005224 3.695025 1.879974 -2.382398 0.852024 18.389362 -0.661599 10.689489 -14.845877 -1.202801 2.000511 19.098722 4.568102 17.425461 -1.404398 0.959509 -1.293908 -8.206466 1.988795 -14.495819 4.890257 -3.608696 -4.824183 -4.957942 3.843229 -10.367765 -0.228132 -5.323193 30.573391 0.000000 0.000000 0.000000 0.687639 -2.078269 2.531319 3.656117 3.835361 3.151285 -9.259472 -4.667862 -8.000157 0.000000 0.000000 0.000000 
-34.879227 87.761559 60.777115 -4.542220 0.346662 76.512787 3.079634 -8.107055 0.405185 -0.801419 1.549709 0.197640 4.179354 30.219967 9.989701 -12.392364 -3.765719 8.823549 13.709826 -1.593361 -0.708023 -16.373247 0.835786 3.687849 1.952017 -2.206038 0.865223 18.138231 -0.530706 10.560645 -14.872252 -1.218606 1.997853 19.085217 4.675452 17.393898 -1.449755 0.955344 -1.215774 -8.230296 1.987228 -14.482674 4.903232 -3.709321 -4.797970 -4.953413 3.877340 -10.403534 -0.076281 -5.293023 30.591887 0.000000 0.000000 0.000000 0.706469 -2.218049 2.545602 3.650520 3.930943 3.150879 -9.267248 -4.679237 -7.985621 0.000000 0.000000 0.000000 
-34.920956 87.760612 60.780651 -4.587354 0.352569 76.505035 3.066843 -8.075981 0.412641 -0.793225 1.562577 0.207167 4.205444 30.221828 10.003069 -12.445599 -3.877928 8.820026 13.710471 -1.590095 -0.696436 -16.367229 0.839321 3.692960 1.965068 -2.127107 0.837038 18.313936 -0.464324 10.378217 -14.890184 -1.224626 1.996531 19.074545 4.758992 17.349592 -1.501468 0.995504 -1.135778 -8.057836 2.006081 -14.486681 4.907903 -3.792980 -4.770848 -4.946061 3.909900 -10.540339 -0.038319 -5.295662 30.725780 0.000000 0.000000 0.000000 0.718458 -2.357335 2.599331 3.657364 4.036400 3.097379 -9.247427 -4.704880 -7.984543 0.000000 0.000000 0.000000 
-34.970604 87.760414 60.789562 -4.648494 0.343164 76.494797 3.069318 -8.045609 0.419109 -0.780465 1.565714 0.213758 4.223747 30.239658 10.025104 -12.507077 -4.008904 8.821605 13.702991 -1.592157 -0.675348 -16.371180 1.020600 3.732069 2.021942 -2.128290 0.690697 18.387932 -0.427692 10.554264 -14.906751 -1.268451 1.999952 19.071997 4.882086 17.296991 -1.543643 0.988769 -1.050516 -8.241101 2.019640 -14.433820 4.937504 -3.898319 -4.721780 -4.938252 3.946640 -10.618861 -0.024799 -5.305293 30.784538 0.000000 0.000000 0.000000 0.758179 -2.538878 2.649358 3.655290 4.191981 3.098882 -9.233540 -4.721158 -8.017299 0.000000 0.000000 0.000000 
-35.016121 87.759933 60.797916 -4.697218 0.338748 76.481781 3.072049 -8.010829 0.430286 -0.768889 1.595100 0.225885 4.202664 30.202427 10.060507 -12.526381 -4.105319 8.840310 13.708138 -1.452929 -0.595349 -16.393248 0.918580 3.618587 2.090249 -2.067642 0.649723 18.549044 -0.351051 10.556581 -14.911448 -1.232804 1.990557 19.025534 4.964535 17.274363 -1.564492 0.940321 -0.939459 -8.416278 1.995832 -14.446480 4.955871 -3.989057 -4.680945 -4.925482 3.985464 -10.750090 0.000436 -5.323959 30.891575 0.000000 0.000000 0.000000 0.789853 -2.712049 2.779059 3.661439 4.350854 2.989064 -9.226812 -4.767865 -8.028778 0.000000 0.000000 0.000000 
-35.065014 87.756821 60.808754 -4.751592 0.333269 76.466209 3.066240 -7.992118 0.448112 -0.753489 1.667307 0.244834 4.201987 30.135902 10.067206 -12.540834 -4.220785 8.829352 13.696656 -1.621305 -0.625461 -16.383413 1.074592 3.743130 2.119521 -2.012457 0.550148 18.797134 -0.266424 10.581753 -14.937028 -1.249098 1.917070 19.014585 5.051859 17.286146 -1.609987 0.981258 -0.845276 -8.309895 2.026848 -14.483450 4.981134 -4.087414 -4.629526 -4.919289 4.030924 -10.899527 -0.146179 -5.415194 31.040382 0.000000 0.000000 0.000000 0.837898 -2.913553 2.861611 3.647069 4.547520 2.936098 -9.214919 -4.820185 -8.048390 0.000000 0.000000 0.000000 
-35.121273 87.753601 60.818123 -4.808161 0.326686 76.451637 3.073516 -7.952089 0.457375 -0.748991 1.717354 0.255105 4.159512 30.077066 10.099251 -12.528338 -4.341573 8.843781 13.702170 -1.644515 -0.573144 -16.394634 1.143282 3.734130 2.153075 -1.997756 0.497584 19.041039 -0.232251 10.554467 -14.997259 -1.324682 1.867460 19.058434 5.177186 17.271475 -1.689672 1.063847 -0.776960 -8.198522 2.095194 -14.478122 5.003717 -4.199556 -4.628406 -4.908977 4.076114 -10.962134 -0.092394 -5.434173 31.125568 0.000000 0.000000 0.000000 0.883737 -3.157524 2.939847 3.644651 4.797823 2.867935 -9.184278 -4.876512 -8.060426 0.000000 0.000000 0.000000 
-35.180492 87.752640 60.822903 -4.877551 0.346433 76.431862 3.060964 -7.941940 0.482332 -0.755323 1.791692 0.281788 4.166291 30.037098 10.118737 -12.537719 -4.486527 8.846148 13.724208 -1.670004 -0.556807 -16.420805 1.211813 3.738633 2.194029 -2.026196 0.461686 19.021658 -0.270511 10.504347 -15.044360 -1.384475 1.803387 19.105091 5.297809 17.251606 -1.771045 1.161913 -0.706808 -7.952038 2.155506 -14.381550 4.994959 -4.344085 -4.659519 -4.889872 4.147895 -11.033953 -0.056304 -5.457907 31.259470 0.000000 0.000000 0.000000 0.909450 -3.439445 2.958472 3.634535 5.075102 2.794995 -9.177561 -4.943544 -8.006189 0.000000 0.000000 0.000000 
-35.246212 87.751411 60.819614 -4.959392 0.414153 76.409492 3.029341 -7.915100 0.497154 -0.803826 1.783174 0.300087 4.184021 30.125515 10.145767 -12.578500 -4.727015 8.847448 13.854697 -1.792539 -0.572181 -16.570637 1.137641 3.781705 2.273847 -1.929904 0.533191 19.057222 -0.197988 10.354136 -15.000834 -1.343579 1.859540 19.080107 5.309333 17.169678 -1.809451 1.202245 -0.625165 -7.912202 2.189932 -14.355522 4.935398 -4.535113 -4.694357 -4.876688 4.245211 -11.091018 -0.035042 -5.448422 31.412376 0.000000 0.000000 0.000000 0.881309 -3.774692 2.902713 3.631653 5.385500 2.749665 -9.219821 -5.027389 -7.901275 0.000000 0.000000 0.000000 
